<?xml version="1.0" encoding="utf-8"?>
<!-- Generator: Adobe Illustrator 24.1.0, SVG Export Plug-In . SVG Version: 6.00 Build 0)  -->
<svg version="1.1" id="Calque_1" xmlns="http://www.w3.org/2000/svg" xmlns:xlink="http://www.w3.org/1999/xlink" x="0px" y="0px"
	 viewBox="0 0 100 125" style="enable-background:new 0 0 100 125;" xml:space="preserve">
<style type="text/css">
	.st0{fill:#61DAFB;}
</style>
<g>
	<g>
		<g>
			<path class="st0" d="M19.6,59.6c-0.8,0-1.4-0.6-1.5-1.4c-0.1-0.8,0.5-1.6,1.4-1.6l47.2-4.2c0.8-0.1,1.6,0.5,1.6,1.4
				s-0.5,1.6-1.4,1.6l-47.2,4.2C19.7,59.6,19.6,59.6,19.6,59.6z"/>
		</g>
		<g>
			<path class="st0" d="M29.3,46.1c-0.8,0-1.4-0.6-1.5-1.4c-0.1-0.8,0.5-1.6,1.4-1.6L75.6,39c0.8-0.1,1.6,0.5,1.6,1.4
				s-0.5,1.6-1.4,1.6l-46.4,4.2C29.4,46.1,29.4,46.1,29.3,46.1z"/>
		</g>
		<g>
			<path class="st0" d="M14.8,89.8c-0.4,0-0.8-0.2-1.1-0.4L8,83.7c-0.3-0.3-0.5-0.8-0.4-1.2C8.8,72.2,18.6,53,34.9,36.1
				c20.5-19.8,46.3-26.8,51-26.8c0.5,0,1.1,0.1,1.6,0.5c0.5,0.5,1.1,1.1-0.3,6.7c-0.9,3.7-2.4,8.1-4.2,12.4
				c-3.7,8.8-10.4,21.8-21.7,33.5C44.4,78.7,25.2,88.6,14.9,89.8C14.9,89.8,14.8,89.8,14.8,89.8z M10.6,82.1l4.7,4.7
				c9.7-1.6,28.1-11.2,43.9-26.5C77.4,41.4,84.3,18,85,12.4c-5.9,0.8-29.3,7.8-48,25.8C21.8,54,12.2,72.4,10.6,82.1z"/>
		</g>
		<g>
			<path class="st0" d="M18.3,80.6c-0.4,0-0.8-0.1-1.1-0.4c-0.6-0.6-0.6-1.5,0-2.1l6.5-6.5c0.6-0.6,1.5-0.6,2.1,0
				c0.6,0.6,0.6,1.5,0,2.1l-6.5,6.5C19.1,80.4,18.7,80.6,18.3,80.6z"/>
		</g>
	</g>
</g>
</svg>
